<mxfile host="app.diagrams.net" modified="2024-05-02T07:59:44.483Z" agent="Mozilla/5.0 (Windows NT 10.0; Win64; x64) AppleWebKit/537.36 (KHTML, like Gecko) Chrome/124.0.0.0 Safari/537.36" etag="2KABeRAm99Qz2oUXh6Ad" version="24.3.1" type="device">
  <diagram name="Page-1" id="jSpjvpmp4hrJ3oQoMGLy">
    <mxGraphModel dx="2868" dy="1492" grid="1" gridSize="10" guides="1" tooltips="1" connect="1" arrows="1" fold="1" page="1" pageScale="1" pageWidth="850" pageHeight="1100" math="0" shadow="0">
      <root>
        <mxCell id="0" />
        <mxCell id="1" parent="0" />
        <mxCell id="n1NJW-3yDSvtISLar_CT-19" value="" style="rounded=1;whiteSpace=wrap;html=1;fillColor=#fff2cc;strokeColor=#d6b656;" vertex="1" parent="1">
          <mxGeometry width="850" height="170" as="geometry" />
        </mxCell>
        <mxCell id="n1NJW-3yDSvtISLar_CT-1" value="Employee" style="swimlane;fontStyle=0;childLayout=stackLayout;horizontal=1;startSize=26;fillColor=none;horizontalStack=0;resizeParent=1;resizeParentMax=0;resizeLast=0;collapsible=1;marginBottom=0;whiteSpace=wrap;html=1;" vertex="1" parent="1">
          <mxGeometry x="40" y="20" width="140" height="78" as="geometry" />
        </mxCell>
        <mxCell id="n1NJW-3yDSvtISLar_CT-2" value="+ empID: number" style="text;strokeColor=none;fillColor=none;align=left;verticalAlign=top;spacingLeft=4;spacingRight=4;overflow=hidden;rotatable=0;points=[[0,0.5],[1,0.5]];portConstraint=eastwest;whiteSpace=wrap;html=1;" vertex="1" parent="n1NJW-3yDSvtISLar_CT-1">
          <mxGeometry y="26" width="140" height="26" as="geometry" />
        </mxCell>
        <mxCell id="n1NJW-3yDSvtISLar_CT-3" value="+ projects: number[]" style="text;strokeColor=none;fillColor=none;align=left;verticalAlign=top;spacingLeft=4;spacingRight=4;overflow=hidden;rotatable=0;points=[[0,0.5],[1,0.5]];portConstraint=eastwest;whiteSpace=wrap;html=1;" vertex="1" parent="n1NJW-3yDSvtISLar_CT-1">
          <mxGeometry y="52" width="140" height="26" as="geometry" />
        </mxCell>
        <mxCell id="n1NJW-3yDSvtISLar_CT-6" value="Project" style="swimlane;fontStyle=0;childLayout=stackLayout;horizontal=1;startSize=26;fillColor=none;horizontalStack=0;resizeParent=1;resizeParentMax=0;resizeLast=0;collapsible=1;marginBottom=0;whiteSpace=wrap;html=1;" vertex="1" parent="1">
          <mxGeometry x="200" y="20" width="200" height="78" as="geometry" />
        </mxCell>
        <mxCell id="n1NJW-3yDSvtISLar_CT-7" value="+ projectID: number" style="text;strokeColor=none;fillColor=none;align=left;verticalAlign=top;spacingLeft=4;spacingRight=4;overflow=hidden;rotatable=0;points=[[0,0.5],[1,0.5]];portConstraint=eastwest;whiteSpace=wrap;html=1;" vertex="1" parent="n1NJW-3yDSvtISLar_CT-6">
          <mxGeometry y="26" width="200" height="26" as="geometry" />
        </mxCell>
        <mxCell id="n1NJW-3yDSvtISLar_CT-8" value="+ workingTimes: workingTime[]" style="text;strokeColor=none;fillColor=none;align=left;verticalAlign=top;spacingLeft=4;spacingRight=4;overflow=hidden;rotatable=0;points=[[0,0.5],[1,0.5]];portConstraint=eastwest;whiteSpace=wrap;html=1;" vertex="1" parent="n1NJW-3yDSvtISLar_CT-6">
          <mxGeometry y="52" width="200" height="26" as="geometry" />
        </mxCell>
        <mxCell id="n1NJW-3yDSvtISLar_CT-11" value="WorkingTime" style="swimlane;fontStyle=0;childLayout=stackLayout;horizontal=1;startSize=26;fillColor=none;horizontalStack=0;resizeParent=1;resizeParentMax=0;resizeLast=0;collapsible=1;marginBottom=0;whiteSpace=wrap;html=1;" vertex="1" parent="1">
          <mxGeometry x="425" y="20" width="200" height="104" as="geometry" />
        </mxCell>
        <mxCell id="n1NJW-3yDSvtISLar_CT-12" value="+ empID: number" style="text;strokeColor=none;fillColor=none;align=left;verticalAlign=top;spacingLeft=4;spacingRight=4;overflow=hidden;rotatable=0;points=[[0,0.5],[1,0.5]];portConstraint=eastwest;whiteSpace=wrap;html=1;" vertex="1" parent="n1NJW-3yDSvtISLar_CT-11">
          <mxGeometry y="26" width="200" height="26" as="geometry" />
        </mxCell>
        <mxCell id="n1NJW-3yDSvtISLar_CT-13" value="+ dateFrom: string | date" style="text;strokeColor=none;fillColor=none;align=left;verticalAlign=top;spacingLeft=4;spacingRight=4;overflow=hidden;rotatable=0;points=[[0,0.5],[1,0.5]];portConstraint=eastwest;whiteSpace=wrap;html=1;" vertex="1" parent="n1NJW-3yDSvtISLar_CT-11">
          <mxGeometry y="52" width="200" height="26" as="geometry" />
        </mxCell>
        <mxCell id="n1NJW-3yDSvtISLar_CT-15" value="+ dateTo: string | date | undefined" style="text;strokeColor=none;fillColor=none;align=left;verticalAlign=top;spacingLeft=4;spacingRight=4;overflow=hidden;rotatable=0;points=[[0,0.5],[1,0.5]];portConstraint=eastwest;whiteSpace=wrap;html=1;" vertex="1" parent="n1NJW-3yDSvtISLar_CT-11">
          <mxGeometry y="78" width="200" height="26" as="geometry" />
        </mxCell>
        <mxCell id="n1NJW-3yDSvtISLar_CT-16" value="User" style="swimlane;fontStyle=0;childLayout=stackLayout;horizontal=1;startSize=26;fillColor=none;horizontalStack=0;resizeParent=1;resizeParentMax=0;resizeLast=0;collapsible=1;marginBottom=0;whiteSpace=wrap;html=1;" vertex="1" parent="1">
          <mxGeometry x="650" y="20" width="140" height="78" as="geometry" />
        </mxCell>
        <mxCell id="n1NJW-3yDSvtISLar_CT-17" value="+ username: number" style="text;strokeColor=none;fillColor=none;align=left;verticalAlign=top;spacingLeft=4;spacingRight=4;overflow=hidden;rotatable=0;points=[[0,0.5],[1,0.5]];portConstraint=eastwest;whiteSpace=wrap;html=1;" vertex="1" parent="n1NJW-3yDSvtISLar_CT-16">
          <mxGeometry y="26" width="140" height="26" as="geometry" />
        </mxCell>
        <mxCell id="n1NJW-3yDSvtISLar_CT-18" value="+ password: number[]" style="text;strokeColor=none;fillColor=none;align=left;verticalAlign=top;spacingLeft=4;spacingRight=4;overflow=hidden;rotatable=0;points=[[0,0.5],[1,0.5]];portConstraint=eastwest;whiteSpace=wrap;html=1;" vertex="1" parent="n1NJW-3yDSvtISLar_CT-16">
          <mxGeometry y="52" width="140" height="26" as="geometry" />
        </mxCell>
        <mxCell id="n1NJW-3yDSvtISLar_CT-20" value="&lt;b&gt;DATA MODELS&lt;/b&gt;" style="text;html=1;align=center;verticalAlign=middle;whiteSpace=wrap;rounded=0;" vertex="1" parent="1">
          <mxGeometry y="140" width="110" height="30" as="geometry" />
        </mxCell>
        <mxCell id="n1NJW-3yDSvtISLar_CT-21" value="" style="rounded=1;whiteSpace=wrap;html=1;fillColor=#fff2cc;strokeColor=#d6b656;" vertex="1" parent="1">
          <mxGeometry y="200" width="850" height="280" as="geometry" />
        </mxCell>
        <mxCell id="n1NJW-3yDSvtISLar_CT-35" value="&lt;b&gt;HANDLE INPUT DATA LOGIC&lt;/b&gt;" style="text;html=1;align=center;verticalAlign=middle;whiteSpace=wrap;rounded=0;" vertex="1" parent="1">
          <mxGeometry x="10" y="440" width="190" height="30" as="geometry" />
        </mxCell>
        <mxCell id="n1NJW-3yDSvtISLar_CT-38" style="edgeStyle=orthogonalEdgeStyle;rounded=0;orthogonalLoop=1;jettySize=auto;html=1;" edge="1" parent="1" source="n1NJW-3yDSvtISLar_CT-36" target="n1NJW-3yDSvtISLar_CT-37">
          <mxGeometry relative="1" as="geometry" />
        </mxCell>
        <mxCell id="n1NJW-3yDSvtISLar_CT-36" value="Actor" style="shape=umlActor;verticalLabelPosition=bottom;verticalAlign=top;html=1;outlineConnect=0;" vertex="1" parent="1">
          <mxGeometry x="40" y="290" width="30" height="60" as="geometry" />
        </mxCell>
        <mxCell id="n1NJW-3yDSvtISLar_CT-42" style="edgeStyle=orthogonalEdgeStyle;rounded=0;orthogonalLoop=1;jettySize=auto;html=1;" edge="1" parent="1" source="n1NJW-3yDSvtISLar_CT-37" target="n1NJW-3yDSvtISLar_CT-41">
          <mxGeometry relative="1" as="geometry" />
        </mxCell>
        <mxCell id="n1NJW-3yDSvtISLar_CT-37" value="[POST}&lt;br&gt;/api/data-handler" style="rounded=1;whiteSpace=wrap;html=1;" vertex="1" parent="1">
          <mxGeometry x="110" y="290" width="120" height="60" as="geometry" />
        </mxCell>
        <mxCell id="n1NJW-3yDSvtISLar_CT-39" value="User uploads the CSV file" style="ellipse;shape=cloud;whiteSpace=wrap;html=1;" vertex="1" parent="1">
          <mxGeometry x="40" y="210" width="120" height="80" as="geometry" />
        </mxCell>
        <mxCell id="n1NJW-3yDSvtISLar_CT-41" value="ProjectsService" style="rounded=1;whiteSpace=wrap;html=1;" vertex="1" parent="1">
          <mxGeometry x="270" y="290" width="120" height="60" as="geometry" />
        </mxCell>
        <mxCell id="n1NJW-3yDSvtISLar_CT-43" value="The data are&lt;br&gt;parsed and saved&lt;br&gt;in memory" style="ellipse;shape=cloud;whiteSpace=wrap;html=1;" vertex="1" parent="1">
          <mxGeometry x="180" y="196.67" width="140" height="93.33" as="geometry" />
        </mxCell>
        <mxCell id="n1NJW-3yDSvtISLar_CT-45" value="stored as &lt;br&gt;Employees &amp;amp; Projects" style="rounded=1;whiteSpace=wrap;html=1;fillColor=#ffe6cc;strokeColor=#d79b00;" vertex="1" parent="1">
          <mxGeometry x="410" y="300" width="130" height="40" as="geometry" />
        </mxCell>
        <mxCell id="n1NJW-3yDSvtISLar_CT-48" value="Employee" style="swimlane;fontStyle=0;childLayout=stackLayout;horizontal=1;startSize=26;fillColor=none;horizontalStack=0;resizeParent=1;resizeParentMax=0;resizeLast=0;collapsible=1;marginBottom=0;whiteSpace=wrap;html=1;" vertex="1" parent="1">
          <mxGeometry x="570" y="262" width="140" height="78" as="geometry" />
        </mxCell>
        <mxCell id="n1NJW-3yDSvtISLar_CT-49" value="+ empID: number" style="text;strokeColor=none;fillColor=none;align=left;verticalAlign=top;spacingLeft=4;spacingRight=4;overflow=hidden;rotatable=0;points=[[0,0.5],[1,0.5]];portConstraint=eastwest;whiteSpace=wrap;html=1;" vertex="1" parent="n1NJW-3yDSvtISLar_CT-48">
          <mxGeometry y="26" width="140" height="26" as="geometry" />
        </mxCell>
        <mxCell id="n1NJW-3yDSvtISLar_CT-50" value="+ projects: number[]" style="text;strokeColor=none;fillColor=none;align=left;verticalAlign=top;spacingLeft=4;spacingRight=4;overflow=hidden;rotatable=0;points=[[0,0.5],[1,0.5]];portConstraint=eastwest;whiteSpace=wrap;html=1;" vertex="1" parent="n1NJW-3yDSvtISLar_CT-48">
          <mxGeometry y="52" width="140" height="26" as="geometry" />
        </mxCell>
        <mxCell id="n1NJW-3yDSvtISLar_CT-51" value="+ projectID: number" style="text;strokeColor=none;fillColor=none;align=left;verticalAlign=top;spacingLeft=4;spacingRight=4;overflow=hidden;rotatable=0;points=[[0,0.5],[1,0.5]];portConstraint=eastwest;whiteSpace=wrap;html=1;" vertex="1" parent="1">
          <mxGeometry x="210" y="56" width="200" height="26" as="geometry" />
        </mxCell>
        <mxCell id="n1NJW-3yDSvtISLar_CT-52" value="Project" style="swimlane;fontStyle=0;childLayout=stackLayout;horizontal=1;startSize=26;fillColor=none;horizontalStack=0;resizeParent=1;resizeParentMax=0;resizeLast=0;collapsible=1;marginBottom=0;whiteSpace=wrap;html=1;" vertex="1" parent="1">
          <mxGeometry x="540" y="362" width="200" height="78" as="geometry" />
        </mxCell>
        <mxCell id="n1NJW-3yDSvtISLar_CT-53" value="+ projectID: number" style="text;strokeColor=none;fillColor=none;align=left;verticalAlign=top;spacingLeft=4;spacingRight=4;overflow=hidden;rotatable=0;points=[[0,0.5],[1,0.5]];portConstraint=eastwest;whiteSpace=wrap;html=1;" vertex="1" parent="n1NJW-3yDSvtISLar_CT-52">
          <mxGeometry y="26" width="200" height="26" as="geometry" />
        </mxCell>
        <mxCell id="n1NJW-3yDSvtISLar_CT-54" value="+ workingTimes: workingTime[]" style="text;strokeColor=none;fillColor=none;align=left;verticalAlign=top;spacingLeft=4;spacingRight=4;overflow=hidden;rotatable=0;points=[[0,0.5],[1,0.5]];portConstraint=eastwest;whiteSpace=wrap;html=1;" vertex="1" parent="n1NJW-3yDSvtISLar_CT-52">
          <mxGeometry y="52" width="200" height="26" as="geometry" />
        </mxCell>
        <mxCell id="n1NJW-3yDSvtISLar_CT-55" value="" style="rounded=1;whiteSpace=wrap;html=1;fillColor=#fff2cc;strokeColor=#d6b656;" vertex="1" parent="1">
          <mxGeometry y="513.3299999999999" width="850" height="280" as="geometry" />
        </mxCell>
        <mxCell id="n1NJW-3yDSvtISLar_CT-56" value="&lt;b&gt;SEARCH LOGIC&lt;/b&gt;" style="text;html=1;align=center;verticalAlign=middle;whiteSpace=wrap;rounded=0;" vertex="1" parent="1">
          <mxGeometry x="10" y="753.33" width="110" height="30" as="geometry" />
        </mxCell>
        <mxCell id="n1NJW-3yDSvtISLar_CT-57" style="edgeStyle=orthogonalEdgeStyle;rounded=0;orthogonalLoop=1;jettySize=auto;html=1;" edge="1" parent="1" source="n1NJW-3yDSvtISLar_CT-58" target="n1NJW-3yDSvtISLar_CT-60">
          <mxGeometry relative="1" as="geometry" />
        </mxCell>
        <mxCell id="n1NJW-3yDSvtISLar_CT-58" value="Actor" style="shape=umlActor;verticalLabelPosition=bottom;verticalAlign=top;html=1;outlineConnect=0;" vertex="1" parent="1">
          <mxGeometry x="40" y="603.3299999999999" width="30" height="60" as="geometry" />
        </mxCell>
        <mxCell id="n1NJW-3yDSvtISLar_CT-59" style="edgeStyle=orthogonalEdgeStyle;rounded=0;orthogonalLoop=1;jettySize=auto;html=1;" edge="1" parent="1" source="n1NJW-3yDSvtISLar_CT-60" target="n1NJW-3yDSvtISLar_CT-62">
          <mxGeometry relative="1" as="geometry" />
        </mxCell>
        <mxCell id="n1NJW-3yDSvtISLar_CT-60" value="[GET]&lt;br&gt;/api/search/brute-force-search" style="rounded=1;whiteSpace=wrap;html=1;" vertex="1" parent="1">
          <mxGeometry x="110" y="603.3299999999999" width="120" height="60" as="geometry" />
        </mxCell>
        <mxCell id="n1NJW-3yDSvtISLar_CT-61" value="Actor should be&lt;br&gt;Authorized" style="ellipse;shape=cloud;whiteSpace=wrap;html=1;fillColor=#f8cecc;strokeColor=#b85450;" vertex="1" parent="1">
          <mxGeometry x="350" y="449.99999999999994" width="120" height="80" as="geometry" />
        </mxCell>
        <mxCell id="n1NJW-3yDSvtISLar_CT-72" style="edgeStyle=orthogonalEdgeStyle;rounded=0;orthogonalLoop=1;jettySize=auto;html=1;" edge="1" parent="1" source="n1NJW-3yDSvtISLar_CT-62" target="n1NJW-3yDSvtISLar_CT-71">
          <mxGeometry relative="1" as="geometry" />
        </mxCell>
        <mxCell id="n1NJW-3yDSvtISLar_CT-62" value="SearchService" style="rounded=1;whiteSpace=wrap;html=1;" vertex="1" parent="1">
          <mxGeometry x="270" y="603.3299999999999" width="120" height="60" as="geometry" />
        </mxCell>
        <mxCell id="n1NJW-3yDSvtISLar_CT-63" value="Explained with&lt;br&gt;comments in the&lt;br&gt;code" style="ellipse;shape=cloud;whiteSpace=wrap;html=1;" vertex="1" parent="1">
          <mxGeometry x="425" y="663.33" width="140" height="76.67" as="geometry" />
        </mxCell>
        <mxCell id="n1NJW-3yDSvtISLar_CT-71" value="bruteForce&lt;br&gt;EmployeeBased()" style="rounded=1;whiteSpace=wrap;html=1;" vertex="1" parent="1">
          <mxGeometry x="440" y="603.3299999999999" width="120" height="60" as="geometry" />
        </mxCell>
        <mxCell id="n1NJW-3yDSvtISLar_CT-73" value="EmployeeBased !?&lt;br&gt;&lt;br&gt;EmployeeBased&amp;nbsp;&lt;span style=&quot;background-color: initial;&quot;&gt;identifies the pair&lt;br&gt;of employees who have&amp;nbsp;&lt;/span&gt;&lt;span style=&quot;background-color: initial;&quot;&gt;worked&lt;br&gt;together on common projects&lt;br&gt;for the longest period of time&lt;br&gt;&lt;br&gt;Alternative option ProjectBased -&amp;gt;&lt;br&gt;finds the project where two employees&lt;br&gt;have worked together for the longest&lt;br&gt;period of time&lt;/span&gt;" style="ellipse;shape=cloud;whiteSpace=wrap;html=1;" vertex="1" parent="1">
          <mxGeometry x="570" y="493.33" width="280" height="300" as="geometry" />
        </mxCell>
        <mxCell id="n1NJW-3yDSvtISLar_CT-74" value="" style="rounded=1;whiteSpace=wrap;html=1;fillColor=#fff2cc;strokeColor=#d6b656;" vertex="1" parent="1">
          <mxGeometry y="840" width="320" height="280" as="geometry" />
        </mxCell>
        <mxCell id="n1NJW-3yDSvtISLar_CT-75" value="&lt;b&gt;CRUD&lt;/b&gt;" style="text;html=1;align=center;verticalAlign=middle;whiteSpace=wrap;rounded=0;" vertex="1" parent="1">
          <mxGeometry x="10" y="1080" width="60" height="30" as="geometry" />
        </mxCell>
        <mxCell id="n1NJW-3yDSvtISLar_CT-76" style="edgeStyle=orthogonalEdgeStyle;rounded=0;orthogonalLoop=1;jettySize=auto;html=1;" edge="1" parent="1" source="n1NJW-3yDSvtISLar_CT-77" target="n1NJW-3yDSvtISLar_CT-79">
          <mxGeometry relative="1" as="geometry" />
        </mxCell>
        <mxCell id="n1NJW-3yDSvtISLar_CT-86" style="edgeStyle=orthogonalEdgeStyle;rounded=0;orthogonalLoop=1;jettySize=auto;html=1;" edge="1" parent="1" source="n1NJW-3yDSvtISLar_CT-77" target="n1NJW-3yDSvtISLar_CT-85">
          <mxGeometry relative="1" as="geometry" />
        </mxCell>
        <mxCell id="n1NJW-3yDSvtISLar_CT-77" value="Actor" style="shape=umlActor;verticalLabelPosition=bottom;verticalAlign=top;html=1;outlineConnect=0;" vertex="1" parent="1">
          <mxGeometry x="40" y="930" width="30" height="60" as="geometry" />
        </mxCell>
        <mxCell id="n1NJW-3yDSvtISLar_CT-79" value="CRUD&lt;br&gt;/api/employees" style="rounded=1;whiteSpace=wrap;html=1;" vertex="1" parent="1">
          <mxGeometry x="110" y="890" width="120" height="60" as="geometry" />
        </mxCell>
        <mxCell id="n1NJW-3yDSvtISLar_CT-84" value="Actor should be&lt;br&gt;Authorized" style="ellipse;shape=cloud;whiteSpace=wrap;html=1;fillColor=#f8cecc;strokeColor=#b85450;" vertex="1" parent="1">
          <mxGeometry x="100" y="793.33" width="120" height="80" as="geometry" />
        </mxCell>
        <mxCell id="n1NJW-3yDSvtISLar_CT-85" value="CRUD&lt;br&gt;/api/projects" style="rounded=1;whiteSpace=wrap;html=1;" vertex="1" parent="1">
          <mxGeometry x="110" y="958.33" width="120" height="60" as="geometry" />
        </mxCell>
        <mxCell id="n1NJW-3yDSvtISLar_CT-87" value="" style="rounded=1;whiteSpace=wrap;html=1;fillColor=#fff2cc;strokeColor=#d6b656;" vertex="1" parent="1">
          <mxGeometry x="530" y="830" width="320" height="280" as="geometry" />
        </mxCell>
        <mxCell id="n1NJW-3yDSvtISLar_CT-88" value="&lt;b&gt;AUTH&lt;/b&gt;" style="text;html=1;align=center;verticalAlign=middle;whiteSpace=wrap;rounded=0;" vertex="1" parent="1">
          <mxGeometry x="515" y="1070" width="110" height="30" as="geometry" />
        </mxCell>
        <mxCell id="n1NJW-3yDSvtISLar_CT-89" style="edgeStyle=orthogonalEdgeStyle;rounded=0;orthogonalLoop=1;jettySize=auto;html=1;" edge="1" parent="1" source="n1NJW-3yDSvtISLar_CT-91" target="n1NJW-3yDSvtISLar_CT-92">
          <mxGeometry relative="1" as="geometry" />
        </mxCell>
        <mxCell id="n1NJW-3yDSvtISLar_CT-90" style="edgeStyle=orthogonalEdgeStyle;rounded=0;orthogonalLoop=1;jettySize=auto;html=1;" edge="1" parent="1" source="n1NJW-3yDSvtISLar_CT-91" target="n1NJW-3yDSvtISLar_CT-94">
          <mxGeometry relative="1" as="geometry" />
        </mxCell>
        <mxCell id="n1NJW-3yDSvtISLar_CT-91" value="Actor" style="shape=umlActor;verticalLabelPosition=bottom;verticalAlign=top;html=1;outlineConnect=0;" vertex="1" parent="1">
          <mxGeometry x="570" y="920" width="30" height="60" as="geometry" />
        </mxCell>
        <mxCell id="n1NJW-3yDSvtISLar_CT-92" value="[POST]&lt;br&gt;/api/auth/register" style="rounded=1;whiteSpace=wrap;html=1;" vertex="1" parent="1">
          <mxGeometry x="640" y="880" width="120" height="60" as="geometry" />
        </mxCell>
        <mxCell id="n1NJW-3yDSvtISLar_CT-94" value="[POST]&lt;br&gt;/api/auth/login" style="rounded=1;whiteSpace=wrap;html=1;" vertex="1" parent="1">
          <mxGeometry x="640" y="948.33" width="120" height="60" as="geometry" />
        </mxCell>
        <mxCell id="n1NJW-3yDSvtISLar_CT-95" value="Auth is JWT based&lt;br&gt;&lt;br&gt;Actor receives &quot;accessToken&quot; in the&lt;br&gt;response body of /api/auth/login&lt;br&gt;&lt;br&gt;Then the accessToken must&lt;br&gt;be attached to the header of every&lt;br&gt;&amp;nbsp;HTTP request, that accessing a protected&lt;br&gt;route" style="ellipse;shape=cloud;whiteSpace=wrap;html=1;" vertex="1" parent="1">
          <mxGeometry x="570" y="990" width="280" height="250" as="geometry" />
        </mxCell>
      </root>
    </mxGraphModel>
  </diagram>
</mxfile>
